# xmcd CD database file
#
# Track frame offsets:
#	150
#	28237
#	54100
#	78632
#	99430
#	123072
#	151830
#	176512
#	197387
#	211362
#	233165
#	251677
#	274332
#
# Disc length: 4338 seconds
#
# Revision: 5
# Processed by: cddbd v1.5.2PL0 Copyright (c) Steve Scherf et al.
# Submitted via: CDex 1.81
#
DISCID=a410f00d
DTITLE=Yosuke Onuma - Summer Madness
DYEAR=2002
DGENRE=Jazz
TTITLE0=Summer Madness
TTITLE1=Driving
TTITLE2=Loveliness
TTITLE3=Color Of The Sky
TTITLE4=At Your Best (You Are Love)
TTITLE5=Tell Me A Bedtime Story
TTITLE6=By The Way
TTITLE7=Do Me, Baby
TTITLE8=Ramblin'
TTITLE9=HGM
TTITLE10=Messages From Water
TTITLE11=True
TTITLE12=Back Together Again (Footsteps On The Beach)
EXTD=YEAR: 2002
EXTT0=
EXTT1=
EXTT2=
EXTT3=
EXTT4=
EXTT5=
EXTT6=
EXTT7=
EXTT8=
EXTT9=
EXTT10=
EXTT11=
EXTT12=
PLAYORDER=
